<?xml version="1.0" encoding="UTF-8" standalone="no"?>
<!-- Created with Inkscape (http://www.inkscape.org/) -->

<svg
   width="2138.2798mm"
   height="350.24237mm"
   viewBox="0 0 2138.2797 350.24237"
   version="1.1"
   id="svg1"
   inkscape:version="1.4.3 (0d15f75, 2025-12-25)"
   sodipodi:docname="logo.svg"
   xmlns:inkscape="http://www.inkscape.org/namespaces/inkscape"
   xmlns:sodipodi="http://sodipodi.sourceforge.net/DTD/sodipodi-0.dtd"
   xmlns="http://www.w3.org/2000/svg"
   xmlns:svg="http://www.w3.org/2000/svg">
  <sodipodi:namedview
     id="namedview1"
     pagecolor="#ffffff"
     bordercolor="#000000"
     borderopacity="0.25"
     inkscape:showpageshadow="2"
     inkscape:pageopacity="0.0"
     inkscape:pagecheckerboard="0"
     inkscape:deskcolor="#d1d1d1"
     inkscape:document-units="mm"
     showguides="true"
     inkscape:zoom="0.12906232"
     inkscape:cx="5377.2472"
     inkscape:cy="863.92372"
     inkscape:window-width="3440"
     inkscape:window-height="1369"
     inkscape:window-x="-8"
     inkscape:window-y="-8"
     inkscape:window-maximized="1"
     inkscape:current-layer="layer1">
    <sodipodi:guide
       position="396.84869,226.48463"
       orientation="0,-1"
       id="guide1"
       inkscape:locked="false" />
    <sodipodi:guide
       position="450.07982,4.8758545e-06"
       orientation="0,-1"
       id="guide2"
       inkscape:locked="false" />
    <sodipodi:guide
       position="450.08002,350.24236"
       orientation="0,-1"
       id="guide3"
       inkscape:locked="false" />
  </sodipodi:namedview>
  <defs
     id="defs1">
    <clipPath
       clipPathUnits="userSpaceOnUse"
       id="clipPath100-1-4-3-4">
      <path
         d="M 0,124.724 H 240.945 V 0 H 0 Z"
         transform="translate(-103.92561,-9.2329027)"
         id="path100-8-8-1-8" />
    </clipPath>
  </defs>
  <g
     inkscape:label="Layer 1"
     inkscape:groupmode="layer"
     id="layer1"
     transform="translate(869.21829,79.375001)">
    <g
       id="g4"
       transform="translate(-119.06252)">
      <path
         id="path99-5-4-4-5"
         d="M 0,6.3553374 3.488,4.823 v 11.902 l -0.004,0.006 0.004,10e-4 V 16.725 L 10.581,7.168 C 13.373,6.285 16.257,5.373 16.257,5.373 L 0,27.278 Z"
         style="display:inline;fill:#f3f3f3;fill-opacity:1;fill-rule:nonzero;stroke:none"
         transform="matrix(15.597515,0,0,-15.597515,-672.70725,346.09418)"
         clip-path="url(#clipPath100-1-4-3-4)"
         sodipodi:nodetypes="cccccccccc" />
      <path
         id="path165-1-1-5"
         style="display:inline;fill:#f3f3f3;fill-opacity:1;stroke-width:26.9309"
         sodipodi:type="inkscape:offset"
         inkscape:radius="0"
         inkscape:original="M -351.30273 -293.39453 L -354.00195 39.498047 L -228.75586 208.25781 L -268.80664 -198.41602 L -351.30273 -293.39453 z "
         d="m -351.30273,-293.39453 -2.69922,332.892577 125.24609,168.759763 -40.05078,-406.67383 z"
         transform="matrix(0.43437592,0,0,0.43437592,-319.77214,171.82626)" />
      <path
         id="path166-1-1-1"
         style="display:inline;fill:#989898;fill-opacity:1;stroke-width:26.9309"
         sodipodi:type="inkscape:offset"
         inkscape:radius="0"
         inkscape:original="M -351.30273 -293.39453 L -563.41602 -242.29688 L -516.05664 -178.08398 L -351.30273 -198.41602 L -351.30273 -293.39453 z "
         d="m -351.30273,-293.39453 -212.11329,51.09765 47.35938,64.2129 164.75391,-20.33204 z"
         transform="matrix(0.43437592,0,0,0.43437592,-319.77214,171.82626)" />
      <path
         id="path168-4-3-7"
         style="display:inline;fill:#989898;fill-opacity:1;stroke-width:26.9309"
         sodipodi:type="inkscape:offset"
         inkscape:radius="0"
         inkscape:original="M -812.50977 -179.64258 L -955.33789 -144.41602 L -878.43945 -133.36328 L -812.51172 -141.5 L -812.50977 -179.64258 z "
         d="m -812.50977,-179.64258 -142.82812,35.22656 76.89844,11.05274 65.92773,-8.13672 z"
         transform="matrix(0.43437592,0,0,0.43437592,-319.77214,171.82626)" />
      <path
         style="display:inline;fill:#cdcdcd;fill-opacity:1;stroke-width:11.6981"
         d="m -672.70703,-79.374998 253.56878,341.663588 -88.5316,-27.9976 -110.69547,-149.158957 z"
         id="path170-3-8-1" />
      <path
         style="fill:#cdcdcd;fill-opacity:1;stroke:none;stroke-width:1.17628;stroke-opacity:1"
         d="m -618.30313,270.86738 27.80646,-36.84349 h -27.80646 z"
         id="path13-7-1"
         sodipodi:nodetypes="cccc" />
    </g>
    <g
       id="g3">
      <path
         id="path1833-1"
         d="m -225.22408,50.176947 19.42633,-3.224883 V 247.67658 L -347.72562,92.544158 V 243.99318 l -19.42518,26.86925 V 45.316639 l 141.92672,155.698011 z"
         style="fill:#f4f2f1;fill-opacity:1;fill-rule:nonzero;stroke:none;stroke-width:15.2839" />
      <path
         id="path1834-4"
         d="m -57.637461,229.33741 c 47.487729,0 83.083752,-37.78202 83.083752,-83.64923 0,-45.867316 -35.596023,-83.633971 -83.083752,-83.633971 -47.502629,0 -83.114699,37.766655 -83.114699,83.633971 0,45.86721 35.61207,83.64923 83.114699,83.64923 m 0,-185.623985 c 62.5879257,0 103.610528,49.642312 103.610528,101.974755 0,52.34758 -41.0226023,101.99001 -103.610528,101.99001 -62.602829,0 -103.610529,-49.64243 -103.610529,-101.99001 0,-52.332443 41.0077,-101.974755 103.610529,-101.974755"
         style="fill:#f4f2f1;fill-opacity:1;fill-rule:nonzero;stroke:none;stroke-width:15.2839" />
      <path
         id="path1835-2"
         d="m 110.99573,151.36454 c 2.14014,0 4.86031,0.26021 8.08485,0.26021 35.35186,0 53.43358,-21.32116 53.43358,-44.24714 0,-25.646605 -17.27129,-41.557235 -52.08783,-41.557235 h -9.4306 z M 91.569402,48.549202 h 24.011528 c 53.14242,0 76.34351,22.941226 76.34351,61.793078 0,28.87149 -24.5457,52.86731 -55.03725,56.65778 l 60.70799,70.96359 -18.8761,9.70525 -67.18803,-83.63397 h -0.53876 v 77.18421 l -19.426327,3.22488 z"
         style="fill:#f4f2f1;fill-opacity:1;fill-rule:nonzero;stroke:none;stroke-width:15.2839" />
      <path
         id="path1836-3"
         d="m 272.10003,224.48008 c 56.1228,-0.81044 82.54843,-38.317 82.54843,-80.40909 0,-42.0921 -32.90566,-77.168853 -77.96323,-77.168853 h -4.5852 z M 252.6737,48.546107 h 20.77094 c 67.18917,0 101.7306,48.847583 101.7306,97.145053 0,50.17729 -39.93706,97.1297 -103.88564,97.1297 h -18.6159 z"
         style="fill:#f4f2f1;fill-opacity:1;fill-rule:nonzero;stroke:none;stroke-width:15.2839" />
      <path
         id="path1837-2"
         d="M 572.41318,50.176947 591.8395,46.952064 V 247.67658 L 449.91164,92.544158 V 241.21146 l -19.42518,3.24024 V 45.316639 L 572.41318,201.01465 Z"
         style="fill:#f4f2f1;fill-opacity:1;fill-rule:nonzero;stroke:none;stroke-width:15.2839" />
      <path
         id="path1838-2"
         d="m 745.36791,229.33741 c 47.50264,0 83.11471,-37.78202 83.11471,-83.64923 0,-45.867316 -35.61207,-83.633971 -83.11471,-83.633971 -47.48772,0 -83.08375,37.766655 -83.08375,83.633971 0,45.86721 35.59603,83.64923 83.08375,83.64923 m 0,-185.623985 c 62.60283,0 103.61053,49.642312 103.61053,101.974755 0,52.34758 -41.0077,101.99001 -103.61053,101.99001 -62.58792,0 -103.61052,-49.64243 -103.61052,-101.99001 0,-52.332443 41.0226,-101.974755 103.61052,-101.974755"
         style="fill:#f4f2f1;fill-opacity:1;fill-rule:nonzero;stroke:none;stroke-width:15.2839" />
      <path
         id="path1839-1"
         d="m 877.35164,50.176947 19.15121,-3.224883 75.54798,162.957866 74.72377,-162.957866 19.1661,3.224883 -93.35454,200.755123 z"
         style="fill:#f4f2f1;fill-opacity:1;fill-rule:nonzero;stroke:none;stroke-width:15.2839" />
      <path
         id="path1840-6"
         d="m 1240.0223,255.46076 -83.4196,-172.097655 -73.9134,161.077935 -19.6865,-3.225 94.1341,-197.499634 111.9246,227.150614 z"
         style="fill:#f4f2f1;fill-opacity:1;fill-rule:nonzero;stroke:none;stroke-width:15.2839" />
    </g>
  </g>
</svg>
